<?xml version="1.0"?>
<svg xmlns="http://www.w3.org/2000/svg" xmlns:xlink="http://www.w3.org/1999/xlink" version="1.1" id="Capa_1" x="0px" y="0px" viewBox="0 0 512 512" style="enable-background:new 0 0 512 512;" xml:space="preserve" width="512px" height="512px" class=""><g><circle style="fill:#1E5C82" cx="256" cy="256" r="256" data-original="#005C83" class="" data-old_color="#1e5c82"/><path style="fill:#08263F" d="M512,256c0-7.4-0.332-14.721-0.948-21.961L393.625,117.875L118.25,394l115.707,117.045  C241.224,511.665,248.572,512,256,512C397.385,512,512,397.385,512,256z" data-original="#00263F" class="active-path" data-old_color="#08263f"/><circle style="fill:#FFFFFF;" cx="256" cy="256" r="195" data-original="#FFFFFF" class=""/><g>
	<path style="fill:#E0E0E0;" d="M256,61c-0.111,0-0.222,0.004-0.333,0.004v389.992c0.111,0,0.222,0.004,0.333,0.004   c107.696,0,195-87.304,195-195S363.696,61,256,61z" data-original="#E0E0E0" class=""/>
	<circle style="fill:#E0E0E0;" cx="256" cy="256" r="122" data-original="#E0E0E0" class=""/>
</g><path style="fill:#C0C0C0;" d="M256,134c-0.111,0-0.222,0.004-0.333,0.004v243.992c0.111,0,0.222,0.004,0.333,0.004  c67.379,0,122-54.621,122-122S323.379,134,256,134z" data-original="#C0C0C0" class=""/><path style="fill:#FFCF35;" d="M172.675,185.643c-2.927-31.502-20.141-48.717-51.644-51.643  c31.502-2.927,48.716-20.141,51.642-51.643c2.927,31.502,20.141,48.717,51.644,51.643  C192.815,136.926,175.601,154.141,172.675,185.643z" data-original="#FFCF35" class=""/><path style="fill:#FFB344" d="M399.358,329.578c-2.255-24.271-15.518-37.534-39.789-39.789  c24.271-2.255,37.533-15.518,39.788-39.789c2.255,24.271,15.518,37.534,39.789,39.789  C414.875,292.044,401.613,305.307,399.358,329.578z" data-original="#FFB344" class=""/></g> </svg>
