<?xml version="1.0"?>
<svg xmlns="http://www.w3.org/2000/svg" xmlns:xlink="http://www.w3.org/1999/xlink" version="1.1" id="Capa_1" x="0px" y="0px" viewBox="0 0 512 512" style="enable-background:new 0 0 512 512;" xml:space="preserve" width="512px" height="512px" class=""><g><circle style="fill:#1E5C82" cx="256" cy="256" r="256" data-original="#008CC3" class="active-path" data-old_color="#1e5c82"/><g>
	<path style="fill:#08263F" d="M510.913,279.529L387.026,155.642l-8.604,8.169l-74.017-74.017l-22.607,19.738l74.903,74.903   l-29.078,27.61l84.732,84.732h-31.098l-173.67-173.67l-41.384,40.517l66.253,66.253l-16.899,13.889l53.15,53.012H117   l-87.127,79.303l106.046,106.046C171.732,501.186,212.601,512,256,512C389.45,512,499.032,409.883,510.913,279.529z" data-original="#0074A3" class="" data-old_color="#08263f"/>
	<path style="fill:#08263F" d="M346.131,87.224l165.831,165.832c-0.185-16.35-1.89-32.333-5.003-47.809L368.846,67.133   L346.131,87.224z" data-original="#0074A3" class="" data-old_color="#08263f"/>
</g><path style="fill:#FFECB3;" d="M416.691,289.334c-0.104,0.018-0.206,0.033-0.311,0.047l-121.399,15.66  c-0.154,0.92-0.353,1.839-0.595,2.755c-3.799,14.37-17.34,23.862-32.092,22.502l-70.086-6.297c-4.434-0.396-7.702-4.314-7.304-8.746  c0.396-4.434,4.332-7.804,8.745-7.305l70.086,6.297c6.924,0.588,13.285-3.82,15.069-10.568c0.972-3.683,0.453-7.526-1.464-10.818  c-1.917-3.294-5.002-5.644-8.685-6.616l-90.04-23.78c-10.113-2.668-20.724-2.396-30.686,0.798L5.493,308.932  c4.997,23.765,13.291,46.312,24.38,67.149l39.921-18.494c15.022-8.684,32.962-10.185,49.22-4.104l97.711,36.534  c18.025,6.079,37.481,5.091,54.796-2.778l156.026-67.816c7.197-4.172,10.106-13.259,6.619-20.849  C431.107,291.913,423.919,288.122,416.691,289.334z" data-original="#FFECB3"/><g>
	<path style="fill:#FFD863;" d="M263.736,314.248c6.924,0.588,13.285-3.82,15.069-10.568c0.972-3.683,0.453-7.526-1.464-10.818   c-1.917-3.294-5.002-5.644-8.685-6.616l-12.989-3.43v30.707L263.736,314.248z" data-original="#FFD863" class=""/>
	<path style="fill:#FFD863;" d="M434.166,298.574c-3.059-6.661-10.247-10.452-17.475-9.239c-0.104,0.018-0.206,0.033-0.311,0.047   l-121.399,15.66c-0.154,0.92-0.353,1.839-0.595,2.755c-3.799,14.37-17.34,23.862-32.092,22.502l-6.628-0.596v62.696   c5.41-1.118,10.727-2.83,15.854-5.16l156.026-67.816C434.744,315.251,437.654,306.164,434.166,298.574z" data-original="#FFD863" class=""/>
</g><circle style="fill:#FFFFFF;" cx="186.42" cy="142.92" r="29" data-original="#FFFFFF" class=""/><g>
	<circle style="fill:#E0E0E0" cx="292.17" cy="98.75" r="15.167" data-original="#E0E0E0" class=""/>
	<circle style="fill:#E0E0E0" cx="357.33" cy="77" r="15.167" data-original="#E0E0E0" class=""/>
</g><circle style="fill:#FFFFFF;" cx="226.17" cy="232.93" r="15.167" data-original="#FFFFFF" class=""/><g>
	<circle style="fill:#E0E0E0" cx="316.29" cy="256" r="15.167" data-original="#E0E0E0" class=""/>
	<circle style="fill:#E0E0E0" cx="357.33" cy="183.96" r="41.04" data-original="#E0E0E0" class=""/>
</g></g> </svg>
