<?xml version="1.0"?>
<svg xmlns="http://www.w3.org/2000/svg" xmlns:xlink="http://www.w3.org/1999/xlink" version="1.1" id="Layer_1" x="0px" y="0px" viewBox="0 0 512 512" style="enable-background:new 0 0 512 512;" xml:space="preserve" width="512px" height="512px" class=""><g><circle style="fill:#1E5C82" cx="256" cy="256" r="256" data-original="#273B7A" class="" data-old_color="#1e5c82"/><path style="fill:#08263F" d="M498.912,336.991l-200.88-200.878l-20.196-2.079l-10.83,0.719l-104.996,2.407l-8.583,213.287  l155.962,155.962C398.52,487.496,470.509,422.214,498.912,336.991z" data-original="#121149" class="active-path" data-old_color="#08263f"/><path style="fill:#71E2EF;" d="M157.484,351.601c-4.284,0-7.758-3.474-7.758-7.758V156.8c0-17.389,14.148-31.537,31.537-31.537  h92.989c17.389,0,31.537,14.148,31.537,31.537v46.495c0,4.284-3.474,7.758-7.758,7.758s-7.758-3.474-7.758-7.758V156.8  c0-8.835-7.187-16.022-16.022-16.022h-92.989c-8.835,0-16.022,7.187-16.022,16.022v187.044  C165.242,348.127,161.768,351.601,157.484,351.601z" data-original="#71E2EF" class=""/><path style="fill:#38C6D9;" d="M368.307,230.674h-0.434c-3.862-35.161-33.651-62.517-69.839-62.517s-65.977,27.358-69.839,62.517  h-0.436c-4.284,0-7.758,3.474-7.758,7.758s3.474,7.758,7.758,7.758h140.548c4.284,0,7.758-3.474,7.758-7.758  S372.591,230.674,368.307,230.674z" data-original="#38C6D9"/><path style="fill:#02B2B2;" d="M368.307,230.674h-0.434c-3.862-35.161-33.651-62.517-69.839-62.517  c-0.028,0-0.055,0.002-0.084,0.002v78.031h70.358c4.284,0,7.758-3.474,7.758-7.758S372.591,230.674,368.307,230.674z" data-original="#02B2B2"/><g>
	<path style="fill:#FFFFFF" d="M298.032,291.669c-4.284,0-7.758-3.474-7.758-7.758v-10.343c0-4.284,3.474-7.758,7.758-7.758   s7.758,3.474,7.758,7.758v10.343C305.79,288.196,302.318,291.669,298.032,291.669z" data-original="#FFFFFF" class=""/>
	<path style="fill:#FFFFFF" d="M298.032,359.448c-4.284,0-7.758-3.474-7.758-7.758v-16.944c0-4.284,3.474-7.758,7.758-7.758   s7.758,3.474,7.758,7.758v16.944C305.79,355.976,302.318,359.448,298.032,359.448z M298.032,325.558   c-4.284,0-7.758-3.474-7.758-7.758v-16.944c0-4.284,3.474-7.758,7.758-7.758s7.758,3.474,7.758,7.758V317.8   C305.79,322.084,302.318,325.558,298.032,325.558z" data-original="#FFFFFF" class=""/>
	<path style="fill:#FFFFFF" d="M298.032,386.738c-4.284,0-7.758-3.474-7.758-7.758v-10.343c0-4.284,3.474-7.758,7.758-7.758   s7.758,3.474,7.758,7.758v10.343C305.79,383.266,302.318,386.738,298.032,386.738z" data-original="#FFFFFF" class=""/>
	<path style="fill:#FFFFFF" d="M365.877,379.454c-3.248,0-6.275-2.055-7.359-5.306l-6.54-19.625   c-1.353-4.063,0.843-8.457,4.908-9.812s8.457,0.843,9.812,4.908l6.54,19.625c1.353,4.063-0.843,8.458-4.908,9.813   C367.518,379.326,366.689,379.454,365.877,379.454z M352.794,340.202c-3.248,0-6.275-2.055-7.358-5.306l-6.542-19.625   c-1.355-4.063,0.84-8.457,4.906-9.811c4.062-1.358,8.457,0.841,9.811,4.906l6.542,19.625c1.355,4.063-0.84,8.457-4.906,9.811   C354.435,340.075,353.608,340.202,352.794,340.202z M339.711,300.953c-3.248,0-6.275-2.055-7.358-5.306l-6.542-19.625   c-1.355-4.063,0.84-8.457,4.906-9.812c4.063-1.35,8.457,0.843,9.811,4.908l6.542,19.625c1.355,4.063-0.84,8.458-4.906,9.811   C341.352,300.823,340.525,300.953,339.711,300.953z" data-original="#FFFFFF" class=""/>
	<path style="fill:#FFFFFF" d="M230.19,379.454c-0.815,0-1.641-0.128-2.455-0.4c-4.065-1.353-6.261-5.748-4.906-9.811l6.542-19.625   c1.353-4.065,5.756-6.258,9.811-4.908c4.065,1.355,6.261,5.749,4.906,9.812l-6.542,19.625   C236.463,377.397,233.438,379.454,230.19,379.454z M243.272,340.202c-0.815,0-1.641-0.128-2.455-0.4   c-4.065-1.353-6.261-5.747-4.906-9.811l6.542-19.625c1.353-4.067,5.758-6.27,9.811-4.906c4.065,1.353,6.261,5.747,4.906,9.811   l-6.542,19.625C249.546,338.148,246.519,340.202,243.272,340.202z M256.355,300.953c-0.815,0-1.641-0.128-2.455-0.4   c-4.065-1.353-6.261-5.748-4.906-9.811l6.542-19.625c1.353-4.067,5.76-6.256,9.811-4.908c4.065,1.355,6.261,5.749,4.906,9.812   l-6.542,19.625C262.63,298.896,259.603,300.953,256.355,300.953z" data-original="#FFFFFF" class=""/>
</g></g> </svg>
