<?xml version="1.0"?>
<svg xmlns="http://www.w3.org/2000/svg" xmlns:xlink="http://www.w3.org/1999/xlink" version="1.1" id="Capa_1" x="0px" y="0px" viewBox="0 0 512 512" style="enable-background:new 0 0 512 512;" xml:space="preserve" width="512px" height="512px" class=""><g><circle style="fill:#1E5C82" cx="256" cy="256" r="256" data-original="#FF6838" class="" data-old_color="#1e5c82"/><path style="fill:#08263F" d="M511.398,273.42L330.333,92.355l-58.53,56.202l106.144,106.144l-36.821,37.785l-129.74-129.74  l-35.622,26.658l114.788,114.788l-181.759-13.027l52.611,52.611l-74.072,16.692L238.24,511.376C244.11,511.779,250.029,512,256,512  C391.529,512,502.44,406.678,511.398,273.42z" data-original="#AE4E32" class="" data-old_color="#08263f"/><circle style="fill:#B9EAFF;" cx="193.71" cy="176.25" r="22.25" data-original="#B9EAFF" class=""/><circle style="fill:#35CCFF;" cx="302.65" cy="122.1" r="40.646" data-original="#35CCFF"/><rect x="87.33" y="305.8" style="fill:#0074A3;" width="337.33" height="54.667" data-original="#0074A3" class=""/><rect x="255.67" y="305.8" style="fill:#005C83;" width="169" height="54.667" data-original="#005C83" class=""/><path style="fill:#FFFFFF;" d="M369,305.802H143c-26.141,0-47.333-21.192-47.333-47.333l0,0c0-26.141,21.192-47.333,47.333-47.333  h226c26.141,0,47.333,21.192,47.333,47.333l0,0C416.333,284.61,395.142,305.802,369,305.802z" data-original="#FFFFFF" class=""/><path style="fill:#F4F4F4" d="M369,211.135H255.667v94.667H369c26.142,0,47.333-21.192,47.333-47.333l0,0  C416.333,232.327,395.142,211.135,369,211.135z" data-original="#E0E0E0" class="active-path" data-old_color="#DFDEDE"/></g> </svg>
