<?xml version="1.0"?>
<svg xmlns="http://www.w3.org/2000/svg" xmlns:xlink="http://www.w3.org/1999/xlink" version="1.1" id="Layer_1" x="0px" y="0px" viewBox="0 0 512 512" style="enable-background:new 0 0 512 512;" xml:space="preserve" width="512px" height="512px" class=""><g><circle style="fill:#1E5C82" cx="256" cy="256" r="256" data-original="#E03A00" class="" data-old_color="#1e5c82"/><path style="fill:#08263F" d="M512,256c0-1.941-0.031-3.877-0.074-5.808l-85.259-79.525l-132.393,123.32L87.847,348.205  l163.738,163.738c1.47,0.024,2.939,0.055,4.415,0.055C397.384,512,512,397.384,512,256z" data-original="#C92F00" class="active-path" data-old_color="#08263f"/><rect x="249.535" y="170.667" style="fill:#FFFFFF;" width="177.131" height="170.667" data-original="#FFFFFF" class=""/><g>
	<rect x="249.535" y="254.845" style="fill:#D0D1D3;" width="177.131" height="86.488" data-original="#D0D1D3"/>
	<path style="fill:#D0D1D3;" d="M256,341.333c0,15.71-38.205,28.444-85.333,28.444s-85.333-12.734-85.333-28.444V170.667H256   V341.333z" data-original="#D0D1D3"/>
</g><path style="fill:#A6A8AA;" d="M85.333,254.85v86.483c0,15.71,38.205,28.444,85.333,28.444S256,357.043,256,341.333V254.85  L85.333,254.85L85.333,254.85z" data-original="#A6A8AA"/><ellipse style="fill:#FFFFFF;" cx="170.667" cy="170.667" rx="85.333" ry="28.444" data-original="#FFFFFF" class=""/><ellipse style="fill:#808183" cx="170.667" cy="170.667" rx="34.133" ry="11.378" data-original="#808183" class=""/></g> </svg>
