<?xml version="1.0"?>
<svg xmlns="http://www.w3.org/2000/svg" xmlns:xlink="http://www.w3.org/1999/xlink" version="1.1" id="Capa_1" x="0px" y="0px" viewBox="0 0 512 512" style="enable-background:new 0 0 512 512;" xml:space="preserve" width="512px" height="512px" class=""><g><circle style="fill:#1E5C82" cx="256" cy="256" r="256" data-original="#FFDC00" class="" data-old_color="#1e5c82"/><path style="fill:#08263F" d="M512,256c0-6.284-0.237-12.512-0.682-18.682L357,83l-54.417,15l19.306,19.307l-19.306,2.027  l15.542,15.542l-15.542,5.458l30.588,30.588l-1.46,5.386L241.154,85.75L179.667,446.5l65.246,65.246  C248.591,511.903,252.284,512,256,512C397.385,512,512,397.385,512,256z" data-original="#FFC000" class="" data-old_color="#08263f"/><rect x="302.58" y="84" style="fill:#FFFFFF;" width="35.834" height="14" data-original="#FFFFFF" class=""/><rect x="319" y="84" style="fill:#E0E0E0;" width="19.417" height="14" data-original="#E0E0E0" class=""/><rect x="302.58" y="105.33" style="fill:#FFFFFF;" width="35.834" height="14" data-original="#FFFFFF" class=""/><rect x="319" y="105.33" style="fill:#E0E0E0;" width="19.417" height="14" data-original="#E0E0E0" class=""/><rect x="302.58" y="126.33" style="fill:#FFFFFF;" width="35.834" height="14" data-original="#FFFFFF" class=""/><rect x="319" y="126.33" style="fill:#E0E0E0;" width="19.417" height="14" data-original="#E0E0E0" class=""/><polygon style="fill:#00B7FF" points="331,446.5 310,446.5 310,192.951 336,151.951 336,83 357,83 357,158.049 331,199.049 " data-original="#0074A3" class="" data-old_color="#00A8FF"/><polygon style="fill:#0091FF" points="336,83 336,151.951 319,178.759 319,446.5 331,446.5 331,199.049 357,158.049 357,83 " data-original="#005C83" class="active-path" data-old_color="#0099FF"/><path style="fill:#00BAFF;" d="M254.498,122.5h-57.662c-10.467,8.432-17.169,21.347-17.169,35.833V446.5h92V158.333  C271.667,143.847,264.964,130.932,254.498,122.5z" data-original="#00BAFF"/><path style="fill:#008CC3;" d="M271.667,158.333c0-14.486-6.703-27.401-17.169-35.833H225v324h46.667V158.333z" data-original="#008CC3"/><polygon style="fill:#B9EAFF;" points="179.667,269 179.667,361 271.667,269 271.667,177 " data-original="#B9EAFF"/><polygon style="fill:#35CCFF" points="271.667,177 225,223.667 225,315.667 271.667,269 " data-original="#35CCFF" class=""/><rect x="179.67" y="423.67" style="fill:#008CC3;" width="92" height="22.833" data-original="#008CC3"/><rect x="225" y="423.67" style="fill:#00B7FF" width="46.667" height="22.833" data-original="#0074A3" class="" data-old_color="#00A8FF"/><polygon style="fill:#FFFFFF;" points="246.5,122.5 204.833,122.5 210.18,85.75 241.154,85.75 " data-original="#FFFFFF" class=""/><polygon style="fill:#E0E0E0;" points="241.154,85.75 225,85.75 225,122.5 246.5,122.5 " data-original="#E0E0E0" class=""/></g> </svg>
