<?xml version="1.0"?>
<svg xmlns="http://www.w3.org/2000/svg" xmlns:xlink="http://www.w3.org/1999/xlink" version="1.1" id="Capa_1" x="0px" y="0px" viewBox="0 0 512 512" style="enable-background:new 0 0 512 512;" xml:space="preserve" width="512px" height="512px" class=""><g><circle style="fill:#1E5C82" cx="256" cy="256" r="256" data-original="#662E57" class="" data-old_color="#1e5c82"/><path style="fill:#08263F" d="M512,256c0-11.496-0.77-22.811-2.239-33.905L396.667,109L115.333,408.333l100.526,100.526  C228.938,510.919,242.342,512,256,512C397.385,512,512,397.385,512,256z" data-original="#590F38" class="" data-old_color="#08263f"/><rect x="115.33" y="109" style="fill:#FFFFFF;" width="281.33" height="299.33" data-original="#FFFFFF" class=""/><rect x="255.67" y="109" style="fill:#E0E0E0;" width="141" height="299.33" data-original="#E0E0E0" class=""/><rect x="115.33" y="109" style="fill:#C0C0C0;" width="281.33" height="52.667" data-original="#C0C0C0" class=""/><rect x="255.67" y="109" style="fill:#758F9B;" width="141" height="52.667" data-original="#758F9B" class=""/><circle style="fill:#C0C0C0;" cx="256" cy="282" r="99.67" data-original="#C0C0C0" class=""/><path style="fill:#758F9B;" d="M256,182.333c-0.111,0-0.222,0.004-0.333,0.004v199.325c0.111,0,0.222,0.004,0.333,0.004  c55.044,0,99.667-44.622,99.667-99.667S311.044,182.333,256,182.333z" data-original="#758F9B" class=""/><circle style="fill:#4D4D4D;" cx="256" cy="282" r="70.22" data-original="#4D4D4D" class=""/><path style="fill:#333333;" d="M256,211.779c-0.112,0-0.222,0.008-0.333,0.008v140.425c0.112,0,0.221,0.008,0.333,0.008  c38.782,0,70.221-31.439,70.221-70.221S294.782,211.779,256,211.779z" data-original="#333333" class=""/><path style="fill:#00C6FF" d="M281.163,296.276c-26.787,10.552-44.645-17.858-67.373-27.599c-4.776-1.686-9.163-1.035-13.128,0.937  c-1.079,4.382-1.663,8.959-1.663,13.674c0,31.48,25.52,57,57,57s57-25.52,57-57c0-4.07-0.434-8.037-1.245-11.865  C302.54,281.325,293.633,291.175,281.163,296.276z" data-original="#35CCFF" class="active-path" data-old_color="#00CEFF"/><path style="fill:#00BAFF" d="M311.755,271.424c-9.214,9.901-18.122,19.752-30.591,24.853c-9.4,3.703-17.7,2.605-25.497-0.798  v44.802c0.112,0.001,0.221,0.009,0.333,0.009c31.48,0,57-25.52,57-57C313,279.219,312.566,275.252,311.755,271.424z" data-original="#00BAFF" class=""/><circle style="fill:#FFFFFF;" cx="369.67" cy="135.33" r="11.667" data-original="#FFFFFF" class=""/></g> </svg>
